<svg xmlns="http://www.w3.org/2000/svg" xmlns:xlink="http://www.w3.org/1999/xlink" width="500" zoomAndPan="magnify" viewBox="0 0 375 374.999991" height="500" preserveAspectRatio="xMidYMid meet" version="1.0"><defs><g/><clipPath id="47126264e9"><path d="M 300 154 L 324 154 L 324 179 L 300 179 Z M 300 154 " clip-rule="nonzero"/></clipPath><clipPath id="02e02d3397"><path d="M 295.738281 158.335938 L 312.261719 143.0625 L 335.171875 167.847656 L 318.648438 183.121094 Z M 295.738281 158.335938 " clip-rule="nonzero"/></clipPath><clipPath id="90d52d1bc6"><path d="M 295.738281 158.335938 L 312.261719 143.0625 L 335.171875 167.847656 L 318.648438 183.121094 Z M 295.738281 158.335938 " clip-rule="nonzero"/></clipPath><clipPath id="c232d125d6"><path d="M 312 143 L 336 143 L 336 168 L 312 168 Z M 312 143 " clip-rule="nonzero"/></clipPath><clipPath id="6ce5f76c82"><path d="M 307.613281 147.363281 L 324.136719 132.089844 L 347.042969 156.875 L 330.519531 172.148438 Z M 307.613281 147.363281 " clip-rule="nonzero"/></clipPath><clipPath id="0f3ef32497"><path d="M 307.613281 147.363281 L 324.136719 132.089844 L 347.042969 156.875 L 330.519531 172.148438 Z M 307.613281 147.363281 " clip-rule="nonzero"/></clipPath></defs><g clip-path="url(#47126264e9)"><g clip-path="url(#02e02d3397)"><g clip-path="url(#90d52d1bc6)"><path fill="#8c52ff" d="M 323.785156 155.601562 L 303.730469 154.707031 C 299.859375 154.535156 299.203125 162.082031 303.792969 162.207031 L 316.273438 162.542969 L 315.320312 175.101562 C 315.027344 178.925781 322.484375 179.328125 322.699219 175.441406 Z M 323.785156 155.601562 " fill-opacity="1" fill-rule="nonzero"/></g></g></g><g clip-path="url(#c232d125d6)"><g clip-path="url(#6ce5f76c82)"><g clip-path="url(#0f3ef32497)"><path fill="#8c52ff" d="M 335.65625 144.625 L 315.601562 143.734375 C 311.730469 143.5625 311.074219 151.109375 315.664062 151.234375 L 328.144531 151.570312 L 327.191406 164.128906 C 326.902344 167.953125 334.359375 168.355469 334.570312 164.46875 Z M 335.65625 144.625 " fill-opacity="1" fill-rule="nonzero"/></g></g></g><g fill="#93c5fd" fill-opacity="1"><g transform="translate(32.495394, 220.263311)"><g><path d="M 22.4375 -48.453125 C 27.050781 -48.453125 31.082031 -47.4375 34.53125 -45.40625 C 37.976562 -43.375 40.664062 -40.546875 42.59375 -36.921875 C 44.519531 -33.296875 45.484375 -29.050781 45.484375 -24.1875 C 45.484375 -19.375 44.519531 -15.140625 42.59375 -11.484375 C 40.664062 -7.835938 37.976562 -5.007812 34.53125 -3 C 31.082031 -1 27.050781 0 22.4375 0 L 6.765625 0 C 5.398438 0 4.222656 -0.441406 3.234375 -1.328125 C 2.242188 -2.210938 1.75 -3.265625 1.75 -4.484375 L 1.75 -44.046875 C 1.75 -45.253906 2.242188 -46.289062 3.234375 -47.15625 C 4.222656 -48.019531 5.398438 -48.453125 6.765625 -48.453125 Z M 22.4375 -7.53125 C 25.28125 -7.53125 27.773438 -8.226562 29.921875 -9.625 C 32.078125 -11.019531 33.75 -12.957031 34.9375 -15.4375 C 36.132812 -17.925781 36.734375 -20.84375 36.734375 -24.1875 C 36.734375 -27.53125 36.132812 -30.46875 34.9375 -33 C 33.75 -35.539062 32.078125 -37.507812 29.921875 -38.90625 C 27.773438 -40.300781 25.28125 -41 22.4375 -41 L 10.421875 -41 L 10.421875 -7.53125 Z M 22.4375 -7.53125 "/></g></g></g><g fill="#93c5fd" fill-opacity="1"><g transform="translate(79.574037, 220.263311)"><g><path d="M 21.75 -6.765625 C 23.21875 -6.765625 24.660156 -6.96875 26.078125 -7.375 C 27.503906 -7.78125 28.828125 -8.46875 30.046875 -9.4375 C 31.210938 -10.5 32.351562 -10.988281 33.46875 -10.90625 C 34.582031 -10.832031 35.503906 -10.425781 36.234375 -9.6875 C 36.972656 -8.957031 37.34375 -8.046875 37.34375 -6.953125 C 37.34375 -5.867188 36.8125 -4.816406 35.75 -3.796875 C 33.976562 -2.078125 31.875 -0.875 29.4375 -0.1875 C 27 0.5 24.515625 0.816406 21.984375 0.765625 C 18.023438 0.765625 14.535156 -0.046875 11.515625 -1.671875 C 8.503906 -3.296875 6.148438 -5.550781 4.453125 -8.4375 C 2.753906 -11.332031 1.90625 -14.679688 1.90625 -18.484375 C 1.90625 -22.640625 2.710938 -26.289062 4.328125 -29.4375 C 5.953125 -32.582031 8.25 -35.039062 11.21875 -36.8125 C 14.1875 -38.582031 17.695312 -39.46875 21.75 -39.46875 C 25.8125 -39.46875 29.257812 -38.644531 32.09375 -37 C 34.9375 -35.351562 37.101562 -33.046875 38.59375 -30.078125 C 40.09375 -27.117188 40.84375 -23.660156 40.84375 -19.703125 C 40.84375 -18.429688 40.585938 -17.351562 40.078125 -16.46875 C 39.578125 -15.582031 38.234375 -15.140625 36.046875 -15.140625 L 10.71875 -15.140625 C 11.4375 -12.648438 12.78125 -10.628906 14.75 -9.078125 C 16.726562 -7.535156 19.0625 -6.765625 21.75 -6.765625 Z M 21.828125 -31.953125 C 18.890625 -31.953125 16.429688 -31.023438 14.453125 -29.171875 C 12.472656 -27.316406 11.207031 -24.894531 10.65625 -21.90625 L 32.78125 -21.90625 C 32.53125 -24.894531 31.539062 -27.316406 29.8125 -29.171875 C 28.09375 -31.023438 25.429688 -31.953125 21.828125 -31.953125 Z M 21.828125 -31.953125 "/></g></g></g><g fill="#93c5fd" fill-opacity="1"><g transform="translate(123.762515, 220.263311)"><g><path d="M 0.078125 -33.015625 C -0.273438 -34.023438 -0.289062 -34.960938 0.03125 -35.828125 C 0.363281 -36.691406 0.921875 -37.390625 1.703125 -37.921875 C 2.492188 -38.453125 3.320312 -38.71875 4.1875 -38.71875 C 5.09375 -38.71875 5.890625 -38.472656 6.578125 -37.984375 C 7.265625 -37.503906 7.785156 -36.859375 8.140625 -36.046875 L 19.78125 -12.46875 L 31.40625 -36.125 C 31.863281 -37.039062 32.457031 -37.703125 33.1875 -38.109375 C 33.925781 -38.515625 34.703125 -38.71875 35.515625 -38.71875 C 36.429688 -38.71875 37.253906 -38.472656 37.984375 -37.984375 C 38.722656 -37.503906 39.234375 -36.847656 39.515625 -36.015625 C 39.796875 -35.179688 39.65625 -34.207031 39.09375 -33.09375 L 23.578125 -1.59375 C 23.222656 -0.9375 22.691406 -0.378906 21.984375 0.078125 C 21.273438 0.535156 20.488281 0.765625 19.625 0.765625 C 17.945312 0.765625 16.679688 0.03125 15.828125 -1.4375 Z M 0.078125 -33.015625 "/></g></g></g><g fill="#93c5fd" fill-opacity="1"><g transform="translate(163.083359, 220.263311)"><g><path d="M 36.65625 -44.71875 C 36.65625 -45.9375 37.148438 -46.863281 38.140625 -47.5 C 39.128906 -48.132812 40.179688 -48.453125 41.296875 -48.453125 C 42.460938 -48.453125 43.488281 -48.160156 44.375 -47.578125 C 45.269531 -46.992188 45.71875 -46.039062 45.71875 -44.71875 L 45.71875 -4.5625 C 45.71875 -3.039062 45.179688 -1.898438 44.109375 -1.140625 C 43.046875 -0.378906 41.882812 0 40.625 0 C 39.757812 0 38.90625 -0.203125 38.0625 -0.609375 C 37.226562 -1.015625 36.554688 -1.546875 36.046875 -2.203125 L 12.78125 -32.171875 L 13.078125 -27.921875 L 13.078125 -4.03125 C 13.078125 -2.613281 12.609375 -1.585938 11.671875 -0.953125 C 10.734375 -0.316406 9.707031 0 8.59375 0 C 7.425781 0 6.375 -0.316406 5.4375 -0.953125 C 4.5 -1.585938 4.03125 -2.613281 4.03125 -4.03125 L 4.03125 -43.8125 C 4.03125 -45.332031 4.5 -46.484375 5.4375 -47.265625 C 6.375 -48.054688 7.453125 -48.453125 8.671875 -48.453125 C 9.628906 -48.453125 10.453125 -48.257812 11.140625 -47.875 C 11.828125 -47.5 12.472656 -46.929688 13.078125 -46.171875 L 36.96875 -15.140625 L 36.65625 -20.234375 Z M 36.65625 -44.71875 "/></g></g></g><g fill="#93c5fd" fill-opacity="1"><g transform="translate(212.747928, 220.263311)"><g><path d="M 21.75 -6.765625 C 23.21875 -6.765625 24.660156 -6.96875 26.078125 -7.375 C 27.503906 -7.78125 28.828125 -8.46875 30.046875 -9.4375 C 31.210938 -10.5 32.351562 -10.988281 33.46875 -10.90625 C 34.582031 -10.832031 35.503906 -10.425781 36.234375 -9.6875 C 36.972656 -8.957031 37.34375 -8.046875 37.34375 -6.953125 C 37.34375 -5.867188 36.8125 -4.816406 35.75 -3.796875 C 33.976562 -2.078125 31.875 -0.875 29.4375 -0.1875 C 27 0.5 24.515625 0.816406 21.984375 0.765625 C 18.023438 0.765625 14.535156 -0.046875 11.515625 -1.671875 C 8.503906 -3.296875 6.148438 -5.550781 4.453125 -8.4375 C 2.753906 -11.332031 1.90625 -14.679688 1.90625 -18.484375 C 1.90625 -22.640625 2.710938 -26.289062 4.328125 -29.4375 C 5.953125 -32.582031 8.25 -35.039062 11.21875 -36.8125 C 14.1875 -38.582031 17.695312 -39.46875 21.75 -39.46875 C 25.8125 -39.46875 29.257812 -38.644531 32.09375 -37 C 34.9375 -35.351562 37.101562 -33.046875 38.59375 -30.078125 C 40.09375 -27.117188 40.84375 -23.660156 40.84375 -19.703125 C 40.84375 -18.429688 40.585938 -17.351562 40.078125 -16.46875 C 39.578125 -15.582031 38.234375 -15.140625 36.046875 -15.140625 L 10.71875 -15.140625 C 11.4375 -12.648438 12.78125 -10.628906 14.75 -9.078125 C 16.726562 -7.535156 19.0625 -6.765625 21.75 -6.765625 Z M 21.828125 -31.953125 C 18.890625 -31.953125 16.429688 -31.023438 14.453125 -29.171875 C 12.472656 -27.316406 11.207031 -24.894531 10.65625 -21.90625 L 32.78125 -21.90625 C 32.53125 -24.894531 31.539062 -27.316406 29.8125 -29.171875 C 28.09375 -31.023438 25.429688 -31.953125 21.828125 -31.953125 Z M 21.828125 -31.953125 "/></g></g></g><g fill="#93c5fd" fill-opacity="1"><g transform="translate(256.936397, 220.263311)"><g><path d="M 0.984375 -9.046875 C 0.628906 -10.472656 0.957031 -11.613281 1.96875 -12.46875 C 2.988281 -13.332031 4.109375 -13.765625 5.328125 -13.765625 C 6.234375 -13.765625 7.039062 -13.5 7.75 -12.96875 C 8.46875 -12.4375 9.003906 -11.640625 9.359375 -10.578125 C 9.660156 -9.660156 10.316406 -8.910156 11.328125 -8.328125 C 12.347656 -7.742188 13.53125 -7.320312 14.875 -7.0625 C 16.21875 -6.8125 17.570312 -6.6875 18.9375 -6.6875 C 21.675781 -6.6875 23.878906 -7.179688 25.546875 -8.171875 C 27.222656 -9.160156 28.0625 -10.414062 28.0625 -11.9375 C 28.0625 -13.007812 27.617188 -13.796875 26.734375 -14.296875 C 25.847656 -14.804688 24.679688 -15.160156 23.234375 -15.359375 C 21.785156 -15.566406 20.253906 -15.722656 18.640625 -15.828125 C 16.503906 -16.023438 14.410156 -16.273438 12.359375 -16.578125 C 10.304688 -16.878906 8.441406 -17.398438 6.765625 -18.140625 C 5.097656 -18.878906 3.753906 -19.96875 2.734375 -21.40625 C 1.722656 -22.851562 1.21875 -24.820312 1.21875 -27.3125 C 1.21875 -29.738281 1.925781 -31.863281 3.34375 -33.6875 C 4.757812 -35.519531 6.757812 -36.941406 9.34375 -37.953125 C 11.9375 -38.960938 14.929688 -39.46875 18.328125 -39.46875 C 20.304688 -39.46875 22.4375 -39.273438 24.71875 -38.890625 C 27 -38.515625 29.113281 -37.742188 31.0625 -36.578125 C 33.019531 -35.421875 34.457031 -33.625 35.375 -31.1875 C 35.726562 -30.175781 35.703125 -29.273438 35.296875 -28.484375 C 34.890625 -27.703125 34.289062 -27.109375 33.5 -26.703125 C 32.71875 -26.296875 31.921875 -26.09375 31.109375 -26.09375 C 30.191406 -26.09375 29.441406 -26.269531 28.859375 -26.625 C 28.273438 -26.976562 27.78125 -27.585938 27.375 -28.453125 C 26.925781 -29.515625 26.15625 -30.296875 25.0625 -30.796875 C 23.96875 -31.304688 22.800781 -31.625 21.5625 -31.75 C 20.320312 -31.882812 19.242188 -31.953125 18.328125 -31.953125 C 15.796875 -31.953125 13.753906 -31.519531 12.203125 -30.65625 C 10.660156 -29.789062 9.890625 -28.648438 9.890625 -27.234375 C 9.890625 -26.015625 10.296875 -25.1875 11.109375 -24.75 C 11.921875 -24.320312 13.019531 -24.070312 14.40625 -24 C 15.800781 -23.925781 17.363281 -23.785156 19.09375 -23.578125 C 21.21875 -23.328125 23.316406 -23.046875 25.390625 -22.734375 C 27.472656 -22.429688 29.378906 -21.910156 31.109375 -21.171875 C 32.835938 -20.441406 34.207031 -19.351562 35.21875 -17.90625 C 36.226562 -16.46875 36.734375 -14.476562 36.734375 -11.9375 C 36.734375 -9.457031 35.984375 -7.253906 34.484375 -5.328125 C 32.992188 -3.398438 30.914062 -1.898438 28.25 -0.828125 C 25.59375 0.234375 22.488281 0.765625 18.9375 0.765625 C 17.363281 0.765625 15.648438 0.648438 13.796875 0.421875 C 11.953125 0.191406 10.15625 -0.265625 8.40625 -0.953125 C 6.65625 -1.640625 5.117188 -2.628906 3.796875 -3.921875 C 2.484375 -5.210938 1.546875 -6.921875 0.984375 -9.046875 Z M 0.984375 -9.046875 "/></g></g></g><g fill="#93c5fd" fill-opacity="1"><g transform="translate(294.736119, 220.263311)"><g><path d="M 20.921875 -7.21875 C 22.085938 -7.882812 23.140625 -8.113281 24.078125 -7.90625 C 25.015625 -7.707031 25.773438 -7.265625 26.359375 -6.578125 C 26.941406 -5.890625 27.234375 -5.09375 27.234375 -4.1875 C 27.234375 -3.519531 27.03125 -2.859375 26.625 -2.203125 C 26.21875 -1.546875 25.582031 -0.988281 24.71875 -0.53125 C 23.601562 0.0703125 22.585938 0.4375 21.671875 0.5625 C 20.765625 0.695312 19.703125 0.765625 18.484375 0.765625 C 15.191406 0.765625 12.65625 0.0820312 10.875 -1.28125 C 9.101562 -2.65625 7.882812 -4.429688 7.21875 -6.609375 C 6.5625 -8.796875 6.234375 -11.109375 6.234375 -13.546875 L 6.234375 -31.484375 L 3.34375 -31.484375 C 1.925781 -31.484375 0.875 -31.863281 0.1875 -32.625 C -0.5 -33.382812 -0.84375 -34.195312 -0.84375 -35.0625 C -0.84375 -35.976562 -0.488281 -36.816406 0.21875 -37.578125 C 0.9375 -38.335938 1.976562 -38.71875 3.34375 -38.71875 L 6.234375 -38.71875 L 6.234375 -45.25 C 6.234375 -46.570312 6.664062 -47.5625 7.53125 -48.21875 C 8.394531 -48.882812 9.382812 -49.21875 10.5 -49.21875 C 11.5625 -49.21875 12.546875 -48.882812 13.453125 -48.21875 C 14.367188 -47.5625 14.828125 -46.570312 14.828125 -45.25 L 14.828125 -38.71875 L 20.765625 -38.71875 C 22.085938 -38.71875 23.101562 -38.335938 23.8125 -37.578125 C 24.519531 -36.816406 24.875 -35.976562 24.875 -35.0625 C 24.875 -34.15625 24.519531 -33.332031 23.8125 -32.59375 C 23.101562 -31.851562 22.085938 -31.484375 20.765625 -31.484375 L 14.828125 -31.484375 L 14.828125 -13.546875 C 14.828125 -12.421875 14.898438 -11.335938 15.046875 -10.296875 C 15.203125 -9.265625 15.546875 -8.40625 16.078125 -7.71875 C 16.617188 -7.03125 17.421875 -6.6875 18.484375 -6.6875 C 18.890625 -6.6875 19.332031 -6.75 19.8125 -6.875 C 20.289062 -7.007812 20.660156 -7.125 20.921875 -7.21875 Z M 20.921875 -7.21875 "/></g></g></g><g fill="#d9d9d9" fill-opacity="1"><g transform="translate(35.207566, 237.840182)"><g><path d="M 5.359375 0.125 C 4.503906 0.125 3.753906 -0.0195312 3.109375 -0.3125 C 2.472656 -0.613281 1.976562 -1.019531 1.625 -1.53125 C 1.269531 -2.050781 1.066406 -2.625 1.015625 -3.25 L 1.890625 -3.25 C 1.992188 -2.5625 2.316406 -1.945312 2.859375 -1.40625 C 3.410156 -0.863281 4.242188 -0.59375 5.359375 -0.59375 C 6.003906 -0.59375 6.566406 -0.710938 7.046875 -0.953125 C 7.535156 -1.191406 7.910156 -1.515625 8.171875 -1.921875 C 8.429688 -2.335938 8.5625 -2.800781 8.5625 -3.3125 C 8.5625 -3.945312 8.40625 -4.453125 8.09375 -4.828125 C 7.789062 -5.203125 7.410156 -5.484375 6.953125 -5.671875 C 6.492188 -5.859375 5.878906 -6.054688 5.109375 -6.265625 C 4.253906 -6.492188 3.566406 -6.71875 3.046875 -6.9375 C 2.523438 -7.164062 2.085938 -7.515625 1.734375 -7.984375 C 1.378906 -8.460938 1.203125 -9.109375 1.203125 -9.921875 C 1.203125 -10.546875 1.367188 -11.117188 1.703125 -11.640625 C 2.035156 -12.160156 2.503906 -12.566406 3.109375 -12.859375 C 3.722656 -13.160156 4.429688 -13.3125 5.234375 -13.3125 C 6.398438 -13.3125 7.335938 -13.023438 8.046875 -12.453125 C 8.765625 -11.878906 9.191406 -11.171875 9.328125 -10.328125 L 8.4375 -10.328125 C 8.351562 -10.671875 8.179688 -11.015625 7.921875 -11.359375 C 7.671875 -11.710938 7.3125 -12.003906 6.84375 -12.234375 C 6.375 -12.460938 5.816406 -12.578125 5.171875 -12.578125 C 4.285156 -12.578125 3.539062 -12.335938 2.9375 -11.859375 C 2.34375 -11.378906 2.046875 -10.738281 2.046875 -9.9375 C 2.046875 -9.300781 2.203125 -8.789062 2.515625 -8.40625 C 2.828125 -8.019531 3.210938 -7.726562 3.671875 -7.53125 C 4.128906 -7.34375 4.742188 -7.148438 5.515625 -6.953125 C 6.378906 -6.710938 7.066406 -6.484375 7.578125 -6.265625 C 8.085938 -6.046875 8.519531 -5.703125 8.875 -5.234375 C 9.226562 -4.765625 9.40625 -4.128906 9.40625 -3.328125 C 9.40625 -2.734375 9.25 -2.171875 8.9375 -1.640625 C 8.625 -1.117188 8.164062 -0.691406 7.5625 -0.359375 C 6.957031 -0.0351562 6.222656 0.125 5.359375 0.125 Z M 5.359375 0.125 "/></g></g></g><g fill="#d9d9d9" fill-opacity="1"><g transform="translate(44.892969, 237.840182)"><g><path d="M 6.03125 0.15625 C 5.070312 0.15625 4.210938 -0.0546875 3.453125 -0.484375 C 2.691406 -0.910156 2.09375 -1.519531 1.65625 -2.3125 C 1.226562 -3.113281 1.015625 -4.046875 1.015625 -5.109375 C 1.015625 -6.160156 1.234375 -7.082031 1.671875 -7.875 C 2.109375 -8.675781 2.710938 -9.285156 3.484375 -9.703125 C 4.253906 -10.117188 5.113281 -10.328125 6.0625 -10.328125 C 7.019531 -10.328125 7.878906 -10.117188 8.640625 -9.703125 C 9.398438 -9.285156 9.992188 -8.679688 10.421875 -7.890625 C 10.859375 -7.097656 11.078125 -6.171875 11.078125 -5.109375 C 11.078125 -4.046875 10.859375 -3.113281 10.421875 -2.3125 C 9.984375 -1.519531 9.378906 -0.910156 8.609375 -0.484375 C 7.835938 -0.0546875 6.976562 0.15625 6.03125 0.15625 Z M 6.03125 -0.59375 C 6.769531 -0.59375 7.460938 -0.757812 8.109375 -1.09375 C 8.753906 -1.425781 9.269531 -1.929688 9.65625 -2.609375 C 10.039062 -3.285156 10.234375 -4.117188 10.234375 -5.109375 C 10.234375 -6.085938 10.039062 -6.914062 9.65625 -7.59375 C 9.269531 -8.269531 8.753906 -8.769531 8.109375 -9.09375 C 7.472656 -9.425781 6.785156 -9.59375 6.046875 -9.59375 C 5.304688 -9.59375 4.617188 -9.425781 3.984375 -9.09375 C 3.359375 -8.769531 2.847656 -8.269531 2.453125 -7.59375 C 2.066406 -6.914062 1.875 -6.085938 1.875 -5.109375 C 1.875 -4.117188 2.066406 -3.285156 2.453125 -2.609375 C 2.835938 -1.929688 3.34375 -1.425781 3.96875 -1.09375 C 4.601562 -0.757812 5.289062 -0.59375 6.03125 -0.59375 Z M 6.03125 -0.59375 "/></g></g></g><g fill="#d9d9d9" fill-opacity="1"><g transform="translate(56.28654, 237.840182)"><g><path d="M 5.421875 -9.453125 L 2.78125 -9.453125 L 2.78125 0 L 1.9375 0 L 1.9375 -9.453125 L 0.390625 -9.453125 L 0.390625 -10.203125 L 1.9375 -10.203125 L 1.9375 -10.90625 C 1.9375 -11.976562 2.203125 -12.769531 2.734375 -13.28125 C 3.273438 -13.800781 4.160156 -14.0625 5.390625 -14.0625 L 5.390625 -13.3125 C 4.410156 -13.3125 3.726562 -13.125 3.34375 -12.75 C 2.96875 -12.375 2.78125 -11.757812 2.78125 -10.90625 L 2.78125 -10.203125 L 5.421875 -10.203125 Z M 5.421875 -9.453125 "/></g></g></g><g fill="#d9d9d9" fill-opacity="1"><g transform="translate(61.617055, 237.840182)"><g><path d="M 2.796875 -9.46875 L 2.796875 -2.71875 C 2.796875 -1.96875 2.929688 -1.453125 3.203125 -1.171875 C 3.484375 -0.890625 3.972656 -0.75 4.671875 -0.75 L 5.828125 -0.75 L 5.828125 0 L 4.546875 0 C 3.660156 0 3.003906 -0.207031 2.578125 -0.625 C 2.160156 -1.050781 1.953125 -1.75 1.953125 -2.71875 L 1.953125 -9.46875 L 0.40625 -9.46875 L 0.40625 -10.203125 L 1.953125 -10.203125 L 1.953125 -12.796875 L 2.796875 -12.796875 L 2.796875 -10.203125 L 5.828125 -10.203125 L 5.828125 -9.46875 Z M 2.796875 -9.46875 "/></g></g></g><g fill="#d9d9d9" fill-opacity="1"><g transform="translate(67.416845, 237.840182)"><g><path d="M 14.875 -10.203125 L 11.65625 0 L 10.859375 0 L 7.609375 -9.03125 L 4.34375 0 L 3.53125 0 L 0.3125 -10.203125 L 1.203125 -10.203125 L 3.9375 -0.953125 L 7.21875 -10.203125 L 8.015625 -10.203125 L 11.265625 -1 L 14.015625 -10.203125 Z M 14.875 -10.203125 "/></g></g></g><g fill="#d9d9d9" fill-opacity="1"><g transform="translate(81.888861, 237.840182)"><g><path d="M 1.015625 -5.109375 C 1.015625 -6.160156 1.222656 -7.078125 1.640625 -7.859375 C 2.054688 -8.648438 2.632812 -9.257812 3.375 -9.6875 C 4.125 -10.113281 4.976562 -10.328125 5.9375 -10.328125 C 7.007812 -10.328125 7.921875 -10.0625 8.671875 -9.53125 C 9.421875 -9.007812 9.945312 -8.34375 10.25 -7.53125 L 10.25 -10.203125 L 11.09375 -10.203125 L 11.09375 0 L 10.25 0 L 10.25 -2.6875 C 9.945312 -1.863281 9.414062 -1.179688 8.65625 -0.640625 C 7.90625 -0.109375 7 0.15625 5.9375 0.15625 C 4.976562 0.15625 4.125 -0.0546875 3.375 -0.484375 C 2.632812 -0.921875 2.054688 -1.535156 1.640625 -2.328125 C 1.222656 -3.128906 1.015625 -4.054688 1.015625 -5.109375 Z M 10.25 -5.109375 C 10.25 -5.992188 10.0625 -6.773438 9.6875 -7.453125 C 9.320312 -8.140625 8.820312 -8.664062 8.1875 -9.03125 C 7.550781 -9.40625 6.835938 -9.59375 6.046875 -9.59375 C 5.222656 -9.59375 4.5 -9.414062 3.875 -9.0625 C 3.25 -8.707031 2.757812 -8.191406 2.40625 -7.515625 C 2.050781 -6.835938 1.875 -6.035156 1.875 -5.109375 C 1.875 -4.179688 2.050781 -3.378906 2.40625 -2.703125 C 2.757812 -2.023438 3.25 -1.503906 3.875 -1.140625 C 4.507812 -0.773438 5.234375 -0.59375 6.046875 -0.59375 C 6.835938 -0.59375 7.554688 -0.773438 8.203125 -1.140625 C 8.847656 -1.515625 9.347656 -2.039062 9.703125 -2.71875 C 10.066406 -3.40625 10.25 -4.203125 10.25 -5.109375 Z M 10.25 -5.109375 "/></g></g></g><g fill="#d9d9d9" fill-opacity="1"><g transform="translate(93.808015, 237.840182)"><g><path d="M 2.390625 -8.09375 C 2.640625 -8.84375 3.082031 -9.414062 3.71875 -9.8125 C 4.351562 -10.207031 5.164062 -10.40625 6.15625 -10.40625 L 6.15625 -9.515625 L 5.875 -9.515625 C 4.875 -9.515625 4.039062 -9.226562 3.375 -8.65625 C 2.71875 -8.09375 2.390625 -7.164062 2.390625 -5.875 L 2.390625 0 L 1.546875 0 L 1.546875 -10.203125 L 2.390625 -10.203125 Z M 2.390625 -8.09375 "/></g></g></g><g fill="#d9d9d9" fill-opacity="1"><g transform="translate(99.664112, 237.840182)"><g><path d="M 10.71875 -5.78125 C 10.71875 -5.332031 10.707031 -4.992188 10.6875 -4.765625 L 1.875 -4.765625 C 1.90625 -3.859375 2.109375 -3.085938 2.484375 -2.453125 C 2.859375 -1.828125 3.351562 -1.359375 3.96875 -1.046875 C 4.582031 -0.734375 5.25 -0.578125 5.96875 -0.578125 C 6.96875 -0.578125 7.804688 -0.820312 8.484375 -1.3125 C 9.160156 -1.8125 9.585938 -2.488281 9.765625 -3.34375 L 10.65625 -3.34375 C 10.445312 -2.300781 9.929688 -1.457031 9.109375 -0.8125 C 8.285156 -0.164062 7.238281 0.15625 5.96875 0.15625 C 5.019531 0.15625 4.171875 -0.0546875 3.421875 -0.484375 C 2.671875 -0.910156 2.082031 -1.519531 1.65625 -2.3125 C 1.226562 -3.113281 1.015625 -4.046875 1.015625 -5.109375 C 1.015625 -6.171875 1.222656 -7.097656 1.640625 -7.890625 C 2.054688 -8.679688 2.640625 -9.285156 3.390625 -9.703125 C 4.148438 -10.117188 5.007812 -10.328125 5.96875 -10.328125 C 6.945312 -10.328125 7.796875 -10.117188 8.515625 -9.703125 C 9.234375 -9.285156 9.78125 -8.726562 10.15625 -8.03125 C 10.53125 -7.332031 10.71875 -6.582031 10.71875 -5.78125 Z M 9.875 -5.46875 C 9.914062 -6.363281 9.753906 -7.125 9.390625 -7.75 C 9.035156 -8.382812 8.550781 -8.851562 7.9375 -9.15625 C 7.332031 -9.457031 6.671875 -9.609375 5.953125 -9.609375 C 5.242188 -9.609375 4.582031 -9.457031 3.96875 -9.15625 C 3.363281 -8.851562 2.867188 -8.382812 2.484375 -7.75 C 2.109375 -7.125 1.90625 -6.363281 1.875 -5.46875 Z M 9.875 -5.46875 "/></g></g></g><g fill="#d9d9d9" fill-opacity="1"><g transform="translate(110.682252, 237.840182)"><g/></g></g><g fill="#d9d9d9" fill-opacity="1"><g transform="translate(115.261917, 237.840182)"><g><path d="M 5.234375 -13.1875 C 7.460938 -13.1875 9.179688 -12.601562 10.390625 -11.4375 C 11.597656 -10.269531 12.203125 -8.648438 12.203125 -6.578125 C 12.203125 -4.492188 11.597656 -2.875 10.390625 -1.71875 C 9.179688 -0.570312 7.460938 0 5.234375 0 L 1.546875 0 L 1.546875 -13.1875 Z M 5.234375 -0.71875 C 7.222656 -0.71875 8.738281 -1.234375 9.78125 -2.265625 C 10.820312 -3.296875 11.34375 -4.734375 11.34375 -6.578125 C 11.34375 -8.429688 10.820312 -9.875 9.78125 -10.90625 C 8.738281 -11.945312 7.222656 -12.46875 5.234375 -12.46875 L 2.390625 -12.46875 L 2.390625 -0.71875 Z M 5.234375 -0.71875 "/></g></g></g><g fill="#d9d9d9" fill-opacity="1"><g transform="translate(127.762974, 237.840182)"><g><path d="M 10.71875 -5.78125 C 10.71875 -5.332031 10.707031 -4.992188 10.6875 -4.765625 L 1.875 -4.765625 C 1.90625 -3.859375 2.109375 -3.085938 2.484375 -2.453125 C 2.859375 -1.828125 3.351562 -1.359375 3.96875 -1.046875 C 4.582031 -0.734375 5.25 -0.578125 5.96875 -0.578125 C 6.96875 -0.578125 7.804688 -0.820312 8.484375 -1.3125 C 9.160156 -1.8125 9.585938 -2.488281 9.765625 -3.34375 L 10.65625 -3.34375 C 10.445312 -2.300781 9.929688 -1.457031 9.109375 -0.8125 C 8.285156 -0.164062 7.238281 0.15625 5.96875 0.15625 C 5.019531 0.15625 4.171875 -0.0546875 3.421875 -0.484375 C 2.671875 -0.910156 2.082031 -1.519531 1.65625 -2.3125 C 1.226562 -3.113281 1.015625 -4.046875 1.015625 -5.109375 C 1.015625 -6.171875 1.222656 -7.097656 1.640625 -7.890625 C 2.054688 -8.679688 2.640625 -9.285156 3.390625 -9.703125 C 4.148438 -10.117188 5.007812 -10.328125 5.96875 -10.328125 C 6.945312 -10.328125 7.796875 -10.117188 8.515625 -9.703125 C 9.234375 -9.285156 9.78125 -8.726562 10.15625 -8.03125 C 10.53125 -7.332031 10.71875 -6.582031 10.71875 -5.78125 Z M 9.875 -5.46875 C 9.914062 -6.363281 9.753906 -7.125 9.390625 -7.75 C 9.035156 -8.382812 8.550781 -8.851562 7.9375 -9.15625 C 7.332031 -9.457031 6.671875 -9.609375 5.953125 -9.609375 C 5.242188 -9.609375 4.582031 -9.457031 3.96875 -9.15625 C 3.363281 -8.851562 2.867188 -8.382812 2.484375 -7.75 C 2.109375 -7.125 1.90625 -6.363281 1.875 -5.46875 Z M 9.875 -5.46875 "/></g></g></g><g fill="#d9d9d9" fill-opacity="1"><g transform="translate(138.781114, 237.840182)"><g><path d="M 5 -0.921875 L 8.75 -10.203125 L 9.65625 -10.203125 L 5.421875 0 L 4.546875 0 L 0.3125 -10.203125 L 1.234375 -10.203125 Z M 5 -0.921875 "/></g></g></g><g fill="#d9d9d9" fill-opacity="1"><g transform="translate(148.034786, 237.840182)"><g><path d="M 10.71875 -5.78125 C 10.71875 -5.332031 10.707031 -4.992188 10.6875 -4.765625 L 1.875 -4.765625 C 1.90625 -3.859375 2.109375 -3.085938 2.484375 -2.453125 C 2.859375 -1.828125 3.351562 -1.359375 3.96875 -1.046875 C 4.582031 -0.734375 5.25 -0.578125 5.96875 -0.578125 C 6.96875 -0.578125 7.804688 -0.820312 8.484375 -1.3125 C 9.160156 -1.8125 9.585938 -2.488281 9.765625 -3.34375 L 10.65625 -3.34375 C 10.445312 -2.300781 9.929688 -1.457031 9.109375 -0.8125 C 8.285156 -0.164062 7.238281 0.15625 5.96875 0.15625 C 5.019531 0.15625 4.171875 -0.0546875 3.421875 -0.484375 C 2.671875 -0.910156 2.082031 -1.519531 1.65625 -2.3125 C 1.226562 -3.113281 1.015625 -4.046875 1.015625 -5.109375 C 1.015625 -6.171875 1.222656 -7.097656 1.640625 -7.890625 C 2.054688 -8.679688 2.640625 -9.285156 3.390625 -9.703125 C 4.148438 -10.117188 5.007812 -10.328125 5.96875 -10.328125 C 6.945312 -10.328125 7.796875 -10.117188 8.515625 -9.703125 C 9.234375 -9.285156 9.78125 -8.726562 10.15625 -8.03125 C 10.53125 -7.332031 10.71875 -6.582031 10.71875 -5.78125 Z M 9.875 -5.46875 C 9.914062 -6.363281 9.753906 -7.125 9.390625 -7.75 C 9.035156 -8.382812 8.550781 -8.851562 7.9375 -9.15625 C 7.332031 -9.457031 6.671875 -9.609375 5.953125 -9.609375 C 5.242188 -9.609375 4.582031 -9.457031 3.96875 -9.15625 C 3.363281 -8.851562 2.867188 -8.382812 2.484375 -7.75 C 2.109375 -7.125 1.90625 -6.363281 1.875 -5.46875 Z M 9.875 -5.46875 "/></g></g></g><g fill="#d9d9d9" fill-opacity="1"><g transform="translate(159.052932, 237.840182)"><g><path d="M 2.390625 -13.890625 L 2.390625 0 L 1.546875 0 L 1.546875 -13.890625 Z M 2.390625 -13.890625 "/></g></g></g><g fill="#d9d9d9" fill-opacity="1"><g transform="translate(162.281089, 237.840182)"><g><path d="M 6.03125 0.15625 C 5.070312 0.15625 4.210938 -0.0546875 3.453125 -0.484375 C 2.691406 -0.910156 2.09375 -1.519531 1.65625 -2.3125 C 1.226562 -3.113281 1.015625 -4.046875 1.015625 -5.109375 C 1.015625 -6.160156 1.234375 -7.082031 1.671875 -7.875 C 2.109375 -8.675781 2.710938 -9.285156 3.484375 -9.703125 C 4.253906 -10.117188 5.113281 -10.328125 6.0625 -10.328125 C 7.019531 -10.328125 7.878906 -10.117188 8.640625 -9.703125 C 9.398438 -9.285156 9.992188 -8.679688 10.421875 -7.890625 C 10.859375 -7.097656 11.078125 -6.171875 11.078125 -5.109375 C 11.078125 -4.046875 10.859375 -3.113281 10.421875 -2.3125 C 9.984375 -1.519531 9.378906 -0.910156 8.609375 -0.484375 C 7.835938 -0.0546875 6.976562 0.15625 6.03125 0.15625 Z M 6.03125 -0.59375 C 6.769531 -0.59375 7.460938 -0.757812 8.109375 -1.09375 C 8.753906 -1.425781 9.269531 -1.929688 9.65625 -2.609375 C 10.039062 -3.285156 10.234375 -4.117188 10.234375 -5.109375 C 10.234375 -6.085938 10.039062 -6.914062 9.65625 -7.59375 C 9.269531 -8.269531 8.753906 -8.769531 8.109375 -9.09375 C 7.472656 -9.425781 6.785156 -9.59375 6.046875 -9.59375 C 5.304688 -9.59375 4.617188 -9.425781 3.984375 -9.09375 C 3.359375 -8.769531 2.847656 -8.269531 2.453125 -7.59375 C 2.066406 -6.914062 1.875 -6.085938 1.875 -5.109375 C 1.875 -4.117188 2.066406 -3.285156 2.453125 -2.609375 C 2.835938 -1.929688 3.34375 -1.425781 3.96875 -1.09375 C 4.601562 -0.757812 5.289062 -0.59375 6.03125 -0.59375 Z M 6.03125 -0.59375 "/></g></g></g><g fill="#d9d9d9" fill-opacity="1"><g transform="translate(173.674664, 237.840182)"><g><path d="M 2.390625 -7.515625 C 2.671875 -8.335938 3.191406 -9.007812 3.953125 -9.53125 C 4.710938 -10.0625 5.628906 -10.328125 6.703125 -10.328125 C 7.648438 -10.328125 8.5 -10.113281 9.25 -9.6875 C 10 -9.257812 10.582031 -8.648438 11 -7.859375 C 11.414062 -7.078125 11.625 -6.160156 11.625 -5.109375 C 11.625 -4.054688 11.414062 -3.128906 11 -2.328125 C 10.582031 -1.535156 10 -0.921875 9.25 -0.484375 C 8.5 -0.0546875 7.648438 0.15625 6.703125 0.15625 C 5.640625 0.15625 4.726562 -0.109375 3.96875 -0.640625 C 3.21875 -1.179688 2.691406 -1.859375 2.390625 -2.671875 L 2.390625 4.8125 L 1.546875 4.8125 L 1.546875 -10.203125 L 2.390625 -10.203125 Z M 10.765625 -5.109375 C 10.765625 -6.035156 10.585938 -6.835938 10.234375 -7.515625 C 9.878906 -8.191406 9.382812 -8.707031 8.75 -9.0625 C 8.125 -9.414062 7.398438 -9.59375 6.578125 -9.59375 C 5.785156 -9.59375 5.066406 -9.40625 4.421875 -9.03125 C 3.785156 -8.664062 3.285156 -8.140625 2.921875 -7.453125 C 2.566406 -6.773438 2.390625 -5.992188 2.390625 -5.109375 C 2.390625 -4.203125 2.566406 -3.40625 2.921875 -2.71875 C 3.285156 -2.039062 3.785156 -1.515625 4.421875 -1.140625 C 5.066406 -0.773438 5.785156 -0.59375 6.578125 -0.59375 C 7.398438 -0.59375 8.125 -0.773438 8.75 -1.140625 C 9.382812 -1.503906 9.878906 -2.023438 10.234375 -2.703125 C 10.585938 -3.378906 10.765625 -4.179688 10.765625 -5.109375 Z M 10.765625 -5.109375 "/></g></g></g><g fill="#d9d9d9" fill-opacity="1"><g transform="translate(185.593824, 237.840182)"><g><path d="M 13.59375 -10.40625 C 14.757812 -10.40625 15.710938 -10.03125 16.453125 -9.28125 C 17.191406 -8.539062 17.5625 -7.4375 17.5625 -5.96875 L 17.5625 0 L 16.734375 0 L 16.734375 -5.921875 C 16.734375 -7.128906 16.441406 -8.054688 15.859375 -8.703125 C 15.273438 -9.347656 14.476562 -9.671875 13.46875 -9.671875 C 12.414062 -9.671875 11.566406 -9.304688 10.921875 -8.578125 C 10.285156 -7.859375 9.96875 -6.804688 9.96875 -5.421875 L 9.96875 0 L 9.140625 0 L 9.140625 -5.921875 C 9.140625 -7.128906 8.847656 -8.054688 8.265625 -8.703125 C 7.691406 -9.347656 6.894531 -9.671875 5.875 -9.671875 C 4.820312 -9.671875 3.976562 -9.304688 3.34375 -8.578125 C 2.707031 -7.859375 2.390625 -6.804688 2.390625 -5.421875 L 2.390625 0 L 1.546875 0 L 1.546875 -10.203125 L 2.390625 -10.203125 L 2.390625 -7.984375 C 2.671875 -8.785156 3.132812 -9.390625 3.78125 -9.796875 C 4.425781 -10.203125 5.171875 -10.40625 6.015625 -10.40625 C 6.941406 -10.40625 7.738281 -10.160156 8.40625 -9.671875 C 9.070312 -9.191406 9.53125 -8.484375 9.78125 -7.546875 C 10.019531 -8.484375 10.484375 -9.191406 11.171875 -9.671875 C 11.859375 -10.160156 12.664062 -10.40625 13.59375 -10.40625 Z M 13.59375 -10.40625 "/></g></g></g><g fill="#d9d9d9" fill-opacity="1"><g transform="translate(203.89514, 237.840182)"><g><path d="M 10.71875 -5.78125 C 10.71875 -5.332031 10.707031 -4.992188 10.6875 -4.765625 L 1.875 -4.765625 C 1.90625 -3.859375 2.109375 -3.085938 2.484375 -2.453125 C 2.859375 -1.828125 3.351562 -1.359375 3.96875 -1.046875 C 4.582031 -0.734375 5.25 -0.578125 5.96875 -0.578125 C 6.96875 -0.578125 7.804688 -0.820312 8.484375 -1.3125 C 9.160156 -1.8125 9.585938 -2.488281 9.765625 -3.34375 L 10.65625 -3.34375 C 10.445312 -2.300781 9.929688 -1.457031 9.109375 -0.8125 C 8.285156 -0.164062 7.238281 0.15625 5.96875 0.15625 C 5.019531 0.15625 4.171875 -0.0546875 3.421875 -0.484375 C 2.671875 -0.910156 2.082031 -1.519531 1.65625 -2.3125 C 1.226562 -3.113281 1.015625 -4.046875 1.015625 -5.109375 C 1.015625 -6.171875 1.222656 -7.097656 1.640625 -7.890625 C 2.054688 -8.679688 2.640625 -9.285156 3.390625 -9.703125 C 4.148438 -10.117188 5.007812 -10.328125 5.96875 -10.328125 C 6.945312 -10.328125 7.796875 -10.117188 8.515625 -9.703125 C 9.234375 -9.285156 9.78125 -8.726562 10.15625 -8.03125 C 10.53125 -7.332031 10.71875 -6.582031 10.71875 -5.78125 Z M 9.875 -5.46875 C 9.914062 -6.363281 9.753906 -7.125 9.390625 -7.75 C 9.035156 -8.382812 8.550781 -8.851562 7.9375 -9.15625 C 7.332031 -9.457031 6.671875 -9.609375 5.953125 -9.609375 C 5.242188 -9.609375 4.582031 -9.457031 3.96875 -9.15625 C 3.363281 -8.851562 2.867188 -8.382812 2.484375 -7.75 C 2.109375 -7.125 1.90625 -6.363281 1.875 -5.46875 Z M 9.875 -5.46875 "/></g></g></g><g fill="#d9d9d9" fill-opacity="1"><g transform="translate(214.913286, 237.840182)"><g><path d="M 6.140625 -10.40625 C 7.359375 -10.40625 8.347656 -10.03125 9.109375 -9.28125 C 9.867188 -8.539062 10.25 -7.4375 10.25 -5.96875 L 10.25 0 L 9.421875 0 L 9.421875 -5.921875 C 9.421875 -7.128906 9.113281 -8.054688 8.5 -8.703125 C 7.894531 -9.347656 7.066406 -9.671875 6.015625 -9.671875 C 4.910156 -9.671875 4.03125 -9.316406 3.375 -8.609375 C 2.71875 -7.910156 2.390625 -6.875 2.390625 -5.5 L 2.390625 0 L 1.546875 0 L 1.546875 -10.203125 L 2.390625 -10.203125 L 2.390625 -8.03125 C 2.671875 -8.800781 3.144531 -9.390625 3.8125 -9.796875 C 4.488281 -10.203125 5.265625 -10.40625 6.140625 -10.40625 Z M 6.140625 -10.40625 "/></g></g></g><g fill="#d9d9d9" fill-opacity="1"><g transform="translate(225.89389, 237.840182)"><g><path d="M 2.796875 -9.46875 L 2.796875 -2.71875 C 2.796875 -1.96875 2.929688 -1.453125 3.203125 -1.171875 C 3.484375 -0.890625 3.972656 -0.75 4.671875 -0.75 L 5.828125 -0.75 L 5.828125 0 L 4.546875 0 C 3.660156 0 3.003906 -0.207031 2.578125 -0.625 C 2.160156 -1.050781 1.953125 -1.75 1.953125 -2.71875 L 1.953125 -9.46875 L 0.40625 -9.46875 L 0.40625 -10.203125 L 1.953125 -10.203125 L 1.953125 -12.796875 L 2.796875 -12.796875 L 2.796875 -10.203125 L 5.828125 -10.203125 L 5.828125 -9.46875 Z M 2.796875 -9.46875 "/></g></g></g></svg>