<svg xmlns="http://www.w3.org/2000/svg" xmlns:xlink="http://www.w3.org/1999/xlink" width="500" zoomAndPan="magnify" viewBox="0 0 375 374.999991" height="500" preserveAspectRatio="xMidYMid meet" version="1.0"><defs><g/><clipPath id="b5ad86e6af"><path d="M 323 128 L 352 128 L 352 157 L 323 157 Z M 323 128 " clip-rule="nonzero"/></clipPath><clipPath id="697a5af0c3"><path d="M 317.726562 132.863281 L 337.605469 114.488281 L 365.167969 144.308594 L 345.289062 162.679688 Z M 317.726562 132.863281 " clip-rule="nonzero"/></clipPath><clipPath id="19d61f6a28"><path d="M 317.726562 132.863281 L 337.605469 114.488281 L 365.167969 144.308594 L 345.289062 162.679688 Z M 317.726562 132.863281 " clip-rule="nonzero"/></clipPath><clipPath id="026dfdeb88"><path d="M 337 115 L 366 115 L 366 144 L 337 144 Z M 337 115 " clip-rule="nonzero"/></clipPath><clipPath id="b5dce49165"><path d="M 332.011719 119.660156 L 351.890625 101.285156 L 379.449219 131.105469 L 359.570312 149.480469 Z M 332.011719 119.660156 " clip-rule="nonzero"/></clipPath><clipPath id="4df9d2d133"><path d="M 332.011719 119.660156 L 351.890625 101.285156 L 379.449219 131.105469 L 359.570312 149.480469 Z M 332.011719 119.660156 " clip-rule="nonzero"/></clipPath></defs><g clip-path="url(#b5ad86e6af)"><g clip-path="url(#697a5af0c3)"><g clip-path="url(#19d61f6a28)"><path fill="#8c52ff" d="M 351.46875 129.570312 L 327.339844 128.496094 C 322.679688 128.289062 321.894531 137.371094 327.414062 137.519531 L 342.429688 137.925781 L 341.28125 153.03125 C 340.933594 157.632812 349.90625 158.121094 350.160156 153.445312 Z M 351.46875 129.570312 " fill-opacity="1" fill-rule="nonzero"/></g></g></g><g clip-path="url(#026dfdeb88)"><g clip-path="url(#b5dce49165)"><g clip-path="url(#4df9d2d133)"><path fill="#8c52ff" d="M 365.753906 116.367188 L 341.625 115.296875 C 336.964844 115.089844 336.175781 124.167969 341.699219 124.316406 L 356.710938 124.722656 L 355.566406 139.832031 C 355.21875 144.429688 364.1875 144.917969 364.445312 140.242188 Z M 365.753906 116.367188 " fill-opacity="1" fill-rule="nonzero"/></g></g></g><g fill="#93c5fd" fill-opacity="1"><g transform="translate(1.009681, 207.368689)"><g><path d="M 27 -58.296875 C 32.550781 -58.296875 37.398438 -57.070312 41.546875 -54.625 C 45.691406 -52.1875 48.921875 -48.785156 51.234375 -44.421875 C 53.554688 -40.066406 54.71875 -34.960938 54.71875 -29.109375 C 54.71875 -23.304688 53.554688 -18.207031 51.234375 -13.8125 C 48.921875 -9.425781 45.691406 -6.023438 41.546875 -3.609375 C 37.398438 -1.203125 32.550781 0 27 0 L 8.140625 0 C 6.492188 0 5.078125 -0.53125 3.890625 -1.59375 C 2.703125 -2.664062 2.109375 -3.9375 2.109375 -5.40625 L 2.109375 -52.984375 C 2.109375 -54.453125 2.703125 -55.703125 3.890625 -56.734375 C 5.078125 -57.773438 6.492188 -58.296875 8.140625 -58.296875 Z M 27 -9.0625 C 30.414062 -9.0625 33.421875 -9.898438 36.015625 -11.578125 C 38.609375 -13.253906 40.617188 -15.585938 42.046875 -18.578125 C 43.484375 -21.566406 44.203125 -25.078125 44.203125 -29.109375 C 44.203125 -33.128906 43.484375 -36.664062 42.046875 -39.71875 C 40.617188 -42.769531 38.609375 -45.132812 36.015625 -46.8125 C 33.421875 -48.488281 30.414062 -49.328125 27 -49.328125 L 12.53125 -49.328125 L 12.53125 -9.0625 Z M 27 -9.0625 "/></g></g></g><g fill="#93c5fd" fill-opacity="1"><g transform="translate(57.651294, 207.368689)"><g><path d="M 26.171875 -8.140625 C 27.941406 -8.140625 29.679688 -8.382812 31.390625 -8.875 C 33.097656 -9.363281 34.6875 -10.1875 36.15625 -11.34375 C 37.550781 -12.625 38.921875 -13.21875 40.265625 -13.125 C 41.609375 -13.039062 42.722656 -12.554688 43.609375 -11.671875 C 44.492188 -10.785156 44.9375 -9.6875 44.9375 -8.375 C 44.9375 -7.0625 44.296875 -5.796875 43.015625 -4.578125 C 40.878906 -2.503906 38.347656 -1.054688 35.421875 -0.234375 C 32.492188 0.585938 29.503906 0.972656 26.453125 0.921875 C 21.691406 0.921875 17.492188 -0.0507812 13.859375 -2 C 10.234375 -3.957031 7.394531 -6.675781 5.34375 -10.15625 C 3.300781 -13.632812 2.28125 -17.660156 2.28125 -22.234375 C 2.28125 -27.242188 3.253906 -31.640625 5.203125 -35.421875 C 7.160156 -39.203125 9.925781 -42.160156 13.5 -44.296875 C 17.070312 -46.429688 21.296875 -47.5 26.171875 -47.5 C 31.054688 -47.5 35.207031 -46.503906 38.625 -44.515625 C 42.039062 -42.535156 44.644531 -39.757812 46.4375 -36.1875 C 48.238281 -32.625 49.140625 -28.460938 49.140625 -23.703125 C 49.140625 -22.179688 48.832031 -20.882812 48.21875 -19.8125 C 47.613281 -18.75 46 -18.21875 43.375 -18.21875 L 12.90625 -18.21875 C 13.757812 -15.226562 15.375 -12.800781 17.75 -10.9375 C 20.132812 -9.070312 22.941406 -8.140625 26.171875 -8.140625 Z M 26.265625 -38.4375 C 22.722656 -38.4375 19.757812 -37.320312 17.375 -35.09375 C 15 -32.863281 13.476562 -29.953125 12.8125 -26.359375 L 39.4375 -26.359375 C 39.132812 -29.953125 37.945312 -32.863281 35.875 -35.09375 C 33.800781 -37.320312 30.597656 -38.4375 26.265625 -38.4375 Z M 26.265625 -38.4375 "/></g></g></g><g fill="#93c5fd" fill-opacity="1"><g transform="translate(110.815672, 207.368689)"><g><path d="M 0.09375 -39.71875 C -0.332031 -40.9375 -0.347656 -42.0625 0.046875 -43.09375 C 0.441406 -44.132812 1.113281 -44.972656 2.0625 -45.609375 C 3.007812 -46.253906 4 -46.578125 5.03125 -46.578125 C 6.132812 -46.578125 7.097656 -46.285156 7.921875 -45.703125 C 8.742188 -45.128906 9.367188 -44.351562 9.796875 -43.375 L 23.796875 -15.015625 L 37.796875 -43.46875 C 38.347656 -44.5625 39.066406 -45.351562 39.953125 -45.84375 C 40.835938 -46.332031 41.765625 -46.578125 42.734375 -46.578125 C 43.835938 -46.578125 44.828125 -46.285156 45.703125 -45.703125 C 46.585938 -45.128906 47.195312 -44.335938 47.53125 -43.328125 C 47.875 -42.328125 47.707031 -41.15625 47.03125 -39.8125 L 28.375 -1.921875 C 27.945312 -1.128906 27.304688 -0.457031 26.453125 0.09375 C 25.597656 0.644531 24.648438 0.921875 23.609375 0.921875 C 21.597656 0.921875 20.070312 0.0351562 19.03125 -1.734375 Z M 0.09375 -39.71875 "/></g></g></g><g fill="#93c5fd" fill-opacity="1"><g transform="translate(158.123663, 207.368689)"><g><path d="M 44.109375 -53.8125 C 44.109375 -55.269531 44.703125 -56.378906 45.890625 -57.140625 C 47.078125 -57.910156 48.34375 -58.296875 49.6875 -58.296875 C 51.09375 -58.296875 52.328125 -57.941406 53.390625 -57.234375 C 54.460938 -56.535156 55 -55.394531 55 -53.8125 L 55 -5.484375 C 55 -3.660156 54.359375 -2.289062 53.078125 -1.375 C 51.796875 -0.457031 50.394531 0 48.875 0 C 47.832031 0 46.804688 -0.242188 45.796875 -0.734375 C 44.796875 -1.222656 43.988281 -1.863281 43.375 -2.65625 L 15.375 -38.71875 L 15.734375 -33.59375 L 15.734375 -4.84375 C 15.734375 -3.132812 15.171875 -1.898438 14.046875 -1.140625 C 12.921875 -0.378906 11.6875 0 10.34375 0 C 8.9375 0 7.664062 -0.378906 6.53125 -1.140625 C 5.40625 -1.898438 4.84375 -3.132812 4.84375 -4.84375 L 4.84375 -52.71875 C 4.84375 -54.539062 5.40625 -55.925781 6.53125 -56.875 C 7.664062 -57.820312 8.96875 -58.296875 10.4375 -58.296875 C 11.59375 -58.296875 12.582031 -58.066406 13.40625 -57.609375 C 14.226562 -57.148438 15.003906 -56.460938 15.734375 -55.546875 L 44.46875 -18.21875 L 44.109375 -24.34375 Z M 44.109375 -53.8125 "/></g></g></g><g fill="#93c5fd" fill-opacity="1"><g transform="translate(217.876476, 207.368689)"><g><path d="M 26.171875 -8.140625 C 27.941406 -8.140625 29.679688 -8.382812 31.390625 -8.875 C 33.097656 -9.363281 34.6875 -10.1875 36.15625 -11.34375 C 37.550781 -12.625 38.921875 -13.21875 40.265625 -13.125 C 41.609375 -13.039062 42.722656 -12.554688 43.609375 -11.671875 C 44.492188 -10.785156 44.9375 -9.6875 44.9375 -8.375 C 44.9375 -7.0625 44.296875 -5.796875 43.015625 -4.578125 C 40.878906 -2.503906 38.347656 -1.054688 35.421875 -0.234375 C 32.492188 0.585938 29.503906 0.972656 26.453125 0.921875 C 21.691406 0.921875 17.492188 -0.0507812 13.859375 -2 C 10.234375 -3.957031 7.394531 -6.675781 5.34375 -10.15625 C 3.300781 -13.632812 2.28125 -17.660156 2.28125 -22.234375 C 2.28125 -27.242188 3.253906 -31.640625 5.203125 -35.421875 C 7.160156 -39.203125 9.925781 -42.160156 13.5 -44.296875 C 17.070312 -46.429688 21.296875 -47.5 26.171875 -47.5 C 31.054688 -47.5 35.207031 -46.503906 38.625 -44.515625 C 42.039062 -42.535156 44.644531 -39.757812 46.4375 -36.1875 C 48.238281 -32.625 49.140625 -28.460938 49.140625 -23.703125 C 49.140625 -22.179688 48.832031 -20.882812 48.21875 -19.8125 C 47.613281 -18.75 46 -18.21875 43.375 -18.21875 L 12.90625 -18.21875 C 13.757812 -15.226562 15.375 -12.800781 17.75 -10.9375 C 20.132812 -9.070312 22.941406 -8.140625 26.171875 -8.140625 Z M 26.265625 -38.4375 C 22.722656 -38.4375 19.757812 -37.320312 17.375 -35.09375 C 15 -32.863281 13.476562 -29.953125 12.8125 -26.359375 L 39.4375 -26.359375 C 39.132812 -29.953125 37.945312 -32.863281 35.875 -35.09375 C 33.800781 -37.320312 30.597656 -38.4375 26.265625 -38.4375 Z M 26.265625 -38.4375 "/></g></g></g><g fill="#93c5fd" fill-opacity="1"><g transform="translate(271.040843, 207.368689)"><g><path d="M 1.1875 -10.890625 C 0.757812 -12.597656 1.15625 -13.96875 2.375 -15 C 3.59375 -16.039062 4.9375 -16.5625 6.40625 -16.5625 C 7.5 -16.5625 8.472656 -16.238281 9.328125 -15.59375 C 10.179688 -14.957031 10.820312 -14 11.25 -12.71875 C 11.625 -11.625 12.421875 -10.722656 13.640625 -10.015625 C 14.859375 -9.316406 16.273438 -8.8125 17.890625 -8.5 C 19.503906 -8.195312 21.132812 -8.046875 22.78125 -8.046875 C 26.082031 -8.046875 28.738281 -8.640625 30.75 -9.828125 C 32.757812 -11.023438 33.765625 -12.539062 33.765625 -14.375 C 33.765625 -15.65625 33.226562 -16.597656 32.15625 -17.203125 C 31.09375 -17.816406 29.691406 -18.242188 27.953125 -18.484375 C 26.210938 -18.734375 24.367188 -18.914062 22.421875 -19.03125 C 19.859375 -19.28125 17.34375 -19.585938 14.875 -19.953125 C 12.40625 -20.316406 10.160156 -20.941406 8.140625 -21.828125 C 6.128906 -22.710938 4.515625 -24.023438 3.296875 -25.765625 C 2.078125 -27.503906 1.46875 -29.867188 1.46875 -32.859375 C 1.46875 -35.785156 2.320312 -38.347656 4.03125 -40.546875 C 5.738281 -42.742188 8.144531 -44.453125 11.25 -45.671875 C 14.363281 -46.890625 17.96875 -47.5 22.0625 -47.5 C 24.4375 -47.5 26.992188 -47.269531 29.734375 -46.8125 C 32.484375 -46.351562 35.03125 -45.421875 37.375 -44.015625 C 39.726562 -42.617188 41.457031 -40.453125 42.5625 -37.515625 C 42.988281 -36.296875 42.957031 -35.210938 42.46875 -34.265625 C 41.976562 -33.328125 41.257812 -32.613281 40.3125 -32.125 C 39.363281 -31.632812 38.40625 -31.390625 37.4375 -31.390625 C 36.332031 -31.390625 35.425781 -31.601562 34.71875 -32.03125 C 34.019531 -32.457031 33.429688 -33.191406 32.953125 -34.234375 C 32.398438 -35.515625 31.46875 -36.457031 30.15625 -37.0625 C 28.84375 -37.675781 27.4375 -38.054688 25.9375 -38.203125 C 24.445312 -38.359375 23.15625 -38.4375 22.0625 -38.4375 C 19.007812 -38.4375 16.550781 -37.914062 14.6875 -36.875 C 12.820312 -35.84375 11.890625 -34.472656 11.890625 -32.765625 C 11.890625 -31.296875 12.378906 -30.300781 13.359375 -29.78125 C 14.335938 -29.269531 15.664062 -28.96875 17.34375 -28.875 C 19.019531 -28.78125 20.894531 -28.613281 22.96875 -28.375 C 25.53125 -28.0625 28.0625 -27.722656 30.5625 -27.359375 C 33.0625 -26.992188 35.347656 -26.367188 37.421875 -25.484375 C 39.503906 -24.597656 41.15625 -23.285156 42.375 -21.546875 C 43.59375 -19.804688 44.203125 -17.414062 44.203125 -14.375 C 44.203125 -11.382812 43.300781 -8.726562 41.5 -6.40625 C 39.695312 -4.082031 37.191406 -2.28125 33.984375 -1 C 30.785156 0.28125 27.050781 0.921875 22.78125 0.921875 C 20.894531 0.921875 18.835938 0.78125 16.609375 0.5 C 14.378906 0.226562 12.210938 -0.316406 10.109375 -1.140625 C 8.003906 -1.960938 6.160156 -3.148438 4.578125 -4.703125 C 2.992188 -6.265625 1.863281 -8.328125 1.1875 -10.890625 Z M 1.1875 -10.890625 "/></g></g></g><g fill="#93c5fd" fill-opacity="1"><g transform="translate(316.518731, 207.368689)"><g><path d="M 25.171875 -8.6875 C 26.566406 -9.488281 27.828125 -9.765625 28.953125 -9.515625 C 30.085938 -9.273438 31.003906 -8.742188 31.703125 -7.921875 C 32.410156 -7.097656 32.765625 -6.132812 32.765625 -5.03125 C 32.765625 -4.238281 32.519531 -3.445312 32.03125 -2.65625 C 31.539062 -1.863281 30.78125 -1.191406 29.75 -0.640625 C 28.40625 0.0859375 27.179688 0.53125 26.078125 0.6875 C 24.984375 0.84375 23.703125 0.921875 22.234375 0.921875 C 18.273438 0.921875 15.226562 0.0976562 13.09375 -1.546875 C 10.957031 -3.203125 9.488281 -5.335938 8.6875 -7.953125 C 7.894531 -10.578125 7.5 -13.359375 7.5 -16.296875 L 7.5 -37.890625 L 4.03125 -37.890625 C 2.320312 -37.890625 1.054688 -38.347656 0.234375 -39.265625 C -0.585938 -40.179688 -1 -41.15625 -1 -42.1875 C -1 -43.289062 -0.570312 -44.296875 0.28125 -45.203125 C 1.132812 -46.117188 2.382812 -46.578125 4.03125 -46.578125 L 7.5 -46.578125 L 7.5 -54.453125 C 7.5 -56.035156 8.015625 -57.222656 9.046875 -58.015625 C 10.085938 -58.804688 11.28125 -59.203125 12.625 -59.203125 C 13.90625 -59.203125 15.09375 -58.804688 16.1875 -58.015625 C 17.289062 -57.222656 17.84375 -56.035156 17.84375 -54.453125 L 17.84375 -46.578125 L 24.984375 -46.578125 C 26.566406 -46.578125 27.785156 -46.117188 28.640625 -45.203125 C 29.492188 -44.296875 29.921875 -43.289062 29.921875 -42.1875 C 29.921875 -41.09375 29.492188 -40.101562 28.640625 -39.21875 C 27.785156 -38.332031 26.566406 -37.890625 24.984375 -37.890625 L 17.84375 -37.890625 L 17.84375 -16.296875 C 17.84375 -14.953125 17.929688 -13.65625 18.109375 -12.40625 C 18.296875 -11.15625 18.707031 -10.113281 19.34375 -9.28125 C 19.988281 -8.457031 20.953125 -8.046875 22.234375 -8.046875 C 22.722656 -8.046875 23.253906 -8.125 23.828125 -8.28125 C 24.410156 -8.4375 24.859375 -8.570312 25.171875 -8.6875 Z M 25.171875 -8.6875 "/></g></g></g><g fill="#d9d9d9" fill-opacity="1"><g transform="translate(4.272768, 228.515918)"><g><path d="M 6.4375 0.15625 C 5.414062 0.15625 4.519531 -0.0195312 3.75 -0.375 C 2.976562 -0.738281 2.378906 -1.226562 1.953125 -1.84375 C 1.523438 -2.46875 1.28125 -3.15625 1.21875 -3.90625 L 2.28125 -3.90625 C 2.40625 -3.082031 2.789062 -2.34375 3.4375 -1.6875 C 4.09375 -1.039062 5.09375 -0.71875 6.4375 -0.71875 C 7.21875 -0.71875 7.898438 -0.859375 8.484375 -1.140625 C 9.066406 -1.429688 9.515625 -1.828125 9.828125 -2.328125 C 10.140625 -2.828125 10.296875 -3.375 10.296875 -3.96875 C 10.296875 -4.738281 10.113281 -5.347656 9.75 -5.796875 C 9.382812 -6.253906 8.925781 -6.59375 8.375 -6.8125 C 7.820312 -7.039062 7.078125 -7.285156 6.140625 -7.546875 C 5.117188 -7.816406 4.296875 -8.085938 3.671875 -8.359375 C 3.046875 -8.628906 2.519531 -9.046875 2.09375 -9.609375 C 1.664062 -10.171875 1.453125 -10.941406 1.453125 -11.921875 C 1.453125 -12.679688 1.648438 -13.375 2.046875 -14 C 2.441406 -14.625 3.007812 -15.113281 3.75 -15.46875 C 4.488281 -15.832031 5.335938 -16.015625 6.296875 -16.015625 C 7.703125 -16.015625 8.832031 -15.664062 9.6875 -14.96875 C 10.550781 -14.28125 11.066406 -13.429688 11.234375 -12.421875 L 10.140625 -12.421875 C 10.054688 -12.828125 9.859375 -13.238281 9.546875 -13.65625 C 9.234375 -14.082031 8.796875 -14.4375 8.234375 -14.71875 C 7.671875 -15 7 -15.140625 6.21875 -15.140625 C 5.15625 -15.140625 4.265625 -14.847656 3.546875 -14.265625 C 2.828125 -13.679688 2.46875 -12.910156 2.46875 -11.953125 C 2.46875 -11.179688 2.65625 -10.566406 3.03125 -10.109375 C 3.40625 -9.648438 3.863281 -9.300781 4.40625 -9.0625 C 4.957031 -8.832031 5.703125 -8.597656 6.640625 -8.359375 C 7.679688 -8.078125 8.503906 -7.800781 9.109375 -7.53125 C 9.722656 -7.269531 10.242188 -6.851562 10.671875 -6.28125 C 11.097656 -5.71875 11.3125 -4.957031 11.3125 -4 C 11.3125 -3.289062 11.125 -2.617188 10.75 -1.984375 C 10.375 -1.359375 9.820312 -0.84375 9.09375 -0.4375 C 8.363281 -0.0390625 7.476562 0.15625 6.4375 0.15625 Z M 6.4375 0.15625 "/></g></g></g><g fill="#d9d9d9" fill-opacity="1"><g transform="translate(15.925544, 228.515918)"><g><path d="M 7.25 0.1875 C 6.101562 0.1875 5.070312 -0.0664062 4.15625 -0.578125 C 3.238281 -1.097656 2.519531 -1.832031 2 -2.78125 C 1.476562 -3.738281 1.21875 -4.859375 1.21875 -6.140625 C 1.21875 -7.410156 1.476562 -8.519531 2 -9.46875 C 2.53125 -10.425781 3.257812 -11.15625 4.1875 -11.65625 C 5.113281 -12.164062 6.148438 -12.421875 7.296875 -12.421875 C 8.441406 -12.421875 9.472656 -12.164062 10.390625 -11.65625 C 11.304688 -11.15625 12.023438 -10.429688 12.546875 -9.484375 C 13.066406 -8.535156 13.328125 -7.421875 13.328125 -6.140625 C 13.328125 -4.859375 13.0625 -3.738281 12.53125 -2.78125 C 12.007812 -1.832031 11.285156 -1.097656 10.359375 -0.578125 C 9.429688 -0.0664062 8.394531 0.1875 7.25 0.1875 Z M 7.25 -0.71875 C 8.132812 -0.71875 8.960938 -0.914062 9.734375 -1.3125 C 10.515625 -1.71875 11.140625 -2.328125 11.609375 -3.140625 C 12.078125 -3.953125 12.3125 -4.953125 12.3125 -6.140625 C 12.3125 -7.316406 12.078125 -8.3125 11.609375 -9.125 C 11.140625 -9.9375 10.519531 -10.539062 9.75 -10.9375 C 8.988281 -11.34375 8.164062 -11.546875 7.28125 -11.546875 C 6.382812 -11.546875 5.554688 -11.34375 4.796875 -10.9375 C 4.035156 -10.539062 3.421875 -9.9375 2.953125 -9.125 C 2.492188 -8.3125 2.265625 -7.316406 2.265625 -6.140625 C 2.265625 -4.953125 2.492188 -3.953125 2.953125 -3.140625 C 3.410156 -2.328125 4.019531 -1.71875 4.78125 -1.3125 C 5.539062 -0.914062 6.363281 -0.71875 7.25 -0.71875 Z M 7.25 -0.71875 "/></g></g></g><g fill="#d9d9d9" fill-opacity="1"><g transform="translate(29.633464, 228.515918)"><g><path d="M 6.53125 -11.359375 L 3.34375 -11.359375 L 3.34375 0 L 2.328125 0 L 2.328125 -11.359375 L 0.46875 -11.359375 L 0.46875 -12.265625 L 2.328125 -12.265625 L 2.328125 -13.125 C 2.328125 -14.40625 2.648438 -15.359375 3.296875 -15.984375 C 3.941406 -16.609375 5.003906 -16.921875 6.484375 -16.921875 L 6.484375 -16.015625 C 5.304688 -16.015625 4.488281 -15.785156 4.03125 -15.328125 C 3.570312 -14.878906 3.34375 -14.144531 3.34375 -13.125 L 3.34375 -12.265625 L 6.53125 -12.265625 Z M 6.53125 -11.359375 "/></g></g></g><g fill="#d9d9d9" fill-opacity="1"><g transform="translate(36.046753, 228.515918)"><g><path d="M 3.359375 -11.390625 L 3.359375 -3.28125 C 3.359375 -2.375 3.523438 -1.75 3.859375 -1.40625 C 4.191406 -1.070312 4.78125 -0.90625 5.625 -0.90625 L 7 -0.90625 L 7 0 L 5.46875 0 C 4.394531 0 3.601562 -0.25 3.09375 -0.75 C 2.59375 -1.257812 2.34375 -2.101562 2.34375 -3.28125 L 2.34375 -11.390625 L 0.5 -11.390625 L 0.5 -12.265625 L 2.34375 -12.265625 L 2.34375 -15.390625 L 3.359375 -15.390625 L 3.359375 -12.265625 L 7 -12.265625 L 7 -11.390625 Z M 3.359375 -11.390625 "/></g></g></g><g fill="#d9d9d9" fill-opacity="1"><g transform="translate(43.024641, 228.515918)"><g><path d="M 17.890625 -12.265625 L 14.03125 0 L 13.0625 0 L 9.15625 -10.875 L 5.21875 0 L 4.25 0 L 0.390625 -12.265625 L 1.453125 -12.265625 L 4.75 -1.15625 L 8.671875 -12.265625 L 9.640625 -12.265625 L 13.5625 -1.203125 L 16.859375 -12.265625 Z M 17.890625 -12.265625 "/></g></g></g><g fill="#d9d9d9" fill-opacity="1"><g transform="translate(60.436323, 228.515918)"><g><path d="M 1.21875 -6.140625 C 1.21875 -7.410156 1.46875 -8.519531 1.96875 -9.46875 C 2.476562 -10.414062 3.179688 -11.144531 4.078125 -11.65625 C 4.972656 -12.164062 5.992188 -12.421875 7.140625 -12.421875 C 8.429688 -12.421875 9.53125 -12.101562 10.4375 -11.46875 C 11.34375 -10.84375 11.976562 -10.039062 12.34375 -9.0625 L 12.34375 -12.265625 L 13.359375 -12.265625 L 13.359375 0 L 12.34375 0 L 12.34375 -3.234375 C 11.976562 -2.234375 11.335938 -1.410156 10.421875 -0.765625 C 9.515625 -0.128906 8.421875 0.1875 7.140625 0.1875 C 5.992188 0.1875 4.972656 -0.0703125 4.078125 -0.59375 C 3.179688 -1.113281 2.476562 -1.851562 1.96875 -2.8125 C 1.46875 -3.769531 1.21875 -4.878906 1.21875 -6.140625 Z M 12.34375 -6.140625 C 12.34375 -7.210938 12.117188 -8.160156 11.671875 -8.984375 C 11.222656 -9.804688 10.613281 -10.4375 9.84375 -10.875 C 9.082031 -11.320312 8.226562 -11.546875 7.28125 -11.546875 C 6.28125 -11.546875 5.40625 -11.328125 4.65625 -10.890625 C 3.90625 -10.460938 3.316406 -9.84375 2.890625 -9.03125 C 2.472656 -8.21875 2.265625 -7.253906 2.265625 -6.140625 C 2.265625 -5.023438 2.472656 -4.0625 2.890625 -3.25 C 3.316406 -2.4375 3.910156 -1.8125 4.671875 -1.375 C 5.429688 -0.9375 6.300781 -0.71875 7.28125 -0.71875 C 8.226562 -0.71875 9.085938 -0.941406 9.859375 -1.390625 C 10.640625 -1.835938 11.25 -2.46875 11.6875 -3.28125 C 12.125 -4.101562 12.34375 -5.054688 12.34375 -6.140625 Z M 12.34375 -6.140625 "/></g></g></g><g fill="#d9d9d9" fill-opacity="1"><g transform="translate(74.776585, 228.515918)"><g><path d="M 2.875 -9.734375 C 3.175781 -10.640625 3.707031 -11.328125 4.46875 -11.796875 C 5.238281 -12.273438 6.21875 -12.515625 7.40625 -12.515625 L 7.40625 -11.453125 L 7.078125 -11.453125 C 5.867188 -11.453125 4.863281 -11.109375 4.0625 -10.421875 C 3.269531 -9.742188 2.875 -8.628906 2.875 -7.078125 L 2.875 0 L 1.859375 0 L 1.859375 -12.265625 L 2.875 -12.265625 Z M 2.875 -9.734375 "/></g></g></g><g fill="#d9d9d9" fill-opacity="1"><g transform="translate(81.822217, 228.515918)"><g><path d="M 12.90625 -6.953125 C 12.90625 -6.410156 12.890625 -6.003906 12.859375 -5.734375 L 2.265625 -5.734375 C 2.285156 -4.640625 2.519531 -3.710938 2.96875 -2.953125 C 3.425781 -2.203125 4.023438 -1.640625 4.765625 -1.265625 C 5.503906 -0.890625 6.3125 -0.703125 7.1875 -0.703125 C 8.394531 -0.703125 9.40625 -1 10.21875 -1.59375 C 11.03125 -2.1875 11.539062 -2.992188 11.75 -4.015625 L 12.8125 -4.015625 C 12.570312 -2.765625 11.953125 -1.75 10.953125 -0.96875 C 9.960938 -0.195312 8.707031 0.1875 7.1875 0.1875 C 6.039062 0.1875 5.015625 -0.0664062 4.109375 -0.578125 C 3.203125 -1.097656 2.492188 -1.832031 1.984375 -2.78125 C 1.472656 -3.738281 1.21875 -4.859375 1.21875 -6.140625 C 1.21875 -7.421875 1.46875 -8.535156 1.96875 -9.484375 C 2.476562 -10.429688 3.179688 -11.15625 4.078125 -11.65625 C 4.984375 -12.164062 6.019531 -12.421875 7.1875 -12.421875 C 8.363281 -12.421875 9.382812 -12.164062 10.25 -11.65625 C 11.113281 -11.15625 11.769531 -10.488281 12.21875 -9.65625 C 12.675781 -8.820312 12.90625 -7.921875 12.90625 -6.953125 Z M 11.890625 -6.578125 C 11.929688 -7.660156 11.738281 -8.578125 11.3125 -9.328125 C 10.882812 -10.078125 10.300781 -10.632812 9.5625 -11 C 8.820312 -11.375 8.019531 -11.5625 7.15625 -11.5625 C 6.300781 -11.5625 5.507812 -11.375 4.78125 -11 C 4.050781 -10.632812 3.453125 -10.078125 2.984375 -9.328125 C 2.523438 -8.578125 2.285156 -7.660156 2.265625 -6.578125 Z M 11.890625 -6.578125 "/></g></g></g><g fill="#d9d9d9" fill-opacity="1"><g transform="translate(95.078445, 228.515918)"><g/></g></g><g fill="#d9d9d9" fill-opacity="1"><g transform="translate(100.588367, 228.515918)"><g><path d="M 6.296875 -15.859375 C 8.984375 -15.859375 11.050781 -15.15625 12.5 -13.75 C 13.957031 -12.351562 14.6875 -10.40625 14.6875 -7.90625 C 14.6875 -5.40625 13.957031 -3.460938 12.5 -2.078125 C 11.050781 -0.691406 8.984375 0 6.296875 0 L 1.859375 0 L 1.859375 -15.859375 Z M 6.296875 -0.859375 C 8.691406 -0.859375 10.515625 -1.476562 11.765625 -2.71875 C 13.015625 -3.96875 13.640625 -5.695312 13.640625 -7.90625 C 13.640625 -10.132812 13.015625 -11.875 11.765625 -13.125 C 10.515625 -14.375 8.691406 -15 6.296875 -15 L 2.875 -15 L 2.875 -0.859375 Z M 6.296875 -0.859375 "/></g></g></g><g fill="#d9d9d9" fill-opacity="1"><g transform="translate(115.628733, 228.515918)"><g><path d="M 12.90625 -6.953125 C 12.90625 -6.410156 12.890625 -6.003906 12.859375 -5.734375 L 2.265625 -5.734375 C 2.285156 -4.640625 2.519531 -3.710938 2.96875 -2.953125 C 3.425781 -2.203125 4.023438 -1.640625 4.765625 -1.265625 C 5.503906 -0.890625 6.3125 -0.703125 7.1875 -0.703125 C 8.394531 -0.703125 9.40625 -1 10.21875 -1.59375 C 11.03125 -2.1875 11.539062 -2.992188 11.75 -4.015625 L 12.8125 -4.015625 C 12.570312 -2.765625 11.953125 -1.75 10.953125 -0.96875 C 9.960938 -0.195312 8.707031 0.1875 7.1875 0.1875 C 6.039062 0.1875 5.015625 -0.0664062 4.109375 -0.578125 C 3.203125 -1.097656 2.492188 -1.832031 1.984375 -2.78125 C 1.472656 -3.738281 1.21875 -4.859375 1.21875 -6.140625 C 1.21875 -7.421875 1.46875 -8.535156 1.96875 -9.484375 C 2.476562 -10.429688 3.179688 -11.15625 4.078125 -11.65625 C 4.984375 -12.164062 6.019531 -12.421875 7.1875 -12.421875 C 8.363281 -12.421875 9.382812 -12.164062 10.25 -11.65625 C 11.113281 -11.15625 11.769531 -10.488281 12.21875 -9.65625 C 12.675781 -8.820312 12.90625 -7.921875 12.90625 -6.953125 Z M 11.890625 -6.578125 C 11.929688 -7.660156 11.738281 -8.578125 11.3125 -9.328125 C 10.882812 -10.078125 10.300781 -10.632812 9.5625 -11 C 8.820312 -11.375 8.019531 -11.5625 7.15625 -11.5625 C 6.300781 -11.5625 5.507812 -11.375 4.78125 -11 C 4.050781 -10.632812 3.453125 -10.078125 2.984375 -9.328125 C 2.523438 -8.578125 2.285156 -7.660156 2.265625 -6.578125 Z M 11.890625 -6.578125 "/></g></g></g><g fill="#d9d9d9" fill-opacity="1"><g transform="translate(128.884962, 228.515918)"><g><path d="M 6.015625 -1.109375 L 10.53125 -12.265625 L 11.609375 -12.265625 L 6.53125 0 L 5.46875 0 L 0.390625 -12.265625 L 1.484375 -12.265625 Z M 6.015625 -1.109375 "/></g></g></g><g fill="#d9d9d9" fill-opacity="1"><g transform="translate(140.01831, 228.515918)"><g><path d="M 12.90625 -6.953125 C 12.90625 -6.410156 12.890625 -6.003906 12.859375 -5.734375 L 2.265625 -5.734375 C 2.285156 -4.640625 2.519531 -3.710938 2.96875 -2.953125 C 3.425781 -2.203125 4.023438 -1.640625 4.765625 -1.265625 C 5.503906 -0.890625 6.3125 -0.703125 7.1875 -0.703125 C 8.394531 -0.703125 9.40625 -1 10.21875 -1.59375 C 11.03125 -2.1875 11.539062 -2.992188 11.75 -4.015625 L 12.8125 -4.015625 C 12.570312 -2.765625 11.953125 -1.75 10.953125 -0.96875 C 9.960938 -0.195312 8.707031 0.1875 7.1875 0.1875 C 6.039062 0.1875 5.015625 -0.0664062 4.109375 -0.578125 C 3.203125 -1.097656 2.492188 -1.832031 1.984375 -2.78125 C 1.472656 -3.738281 1.21875 -4.859375 1.21875 -6.140625 C 1.21875 -7.421875 1.46875 -8.535156 1.96875 -9.484375 C 2.476562 -10.429688 3.179688 -11.15625 4.078125 -11.65625 C 4.984375 -12.164062 6.019531 -12.421875 7.1875 -12.421875 C 8.363281 -12.421875 9.382812 -12.164062 10.25 -11.65625 C 11.113281 -11.15625 11.769531 -10.488281 12.21875 -9.65625 C 12.675781 -8.820312 12.90625 -7.921875 12.90625 -6.953125 Z M 11.890625 -6.578125 C 11.929688 -7.660156 11.738281 -8.578125 11.3125 -9.328125 C 10.882812 -10.078125 10.300781 -10.632812 9.5625 -11 C 8.820312 -11.375 8.019531 -11.5625 7.15625 -11.5625 C 6.300781 -11.5625 5.507812 -11.375 4.78125 -11 C 4.050781 -10.632812 3.453125 -10.078125 2.984375 -9.328125 C 2.523438 -8.578125 2.285156 -7.660156 2.265625 -6.578125 Z M 11.890625 -6.578125 "/></g></g></g><g fill="#d9d9d9" fill-opacity="1"><g transform="translate(153.274545, 228.515918)"><g><path d="M 2.875 -16.71875 L 2.875 0 L 1.859375 0 L 1.859375 -16.71875 Z M 2.875 -16.71875 "/></g></g></g><g fill="#d9d9d9" fill-opacity="1"><g transform="translate(157.158429, 228.515918)"><g><path d="M 7.25 0.1875 C 6.101562 0.1875 5.070312 -0.0664062 4.15625 -0.578125 C 3.238281 -1.097656 2.519531 -1.832031 2 -2.78125 C 1.476562 -3.738281 1.21875 -4.859375 1.21875 -6.140625 C 1.21875 -7.410156 1.476562 -8.519531 2 -9.46875 C 2.53125 -10.425781 3.257812 -11.15625 4.1875 -11.65625 C 5.113281 -12.164062 6.148438 -12.421875 7.296875 -12.421875 C 8.441406 -12.421875 9.472656 -12.164062 10.390625 -11.65625 C 11.304688 -11.15625 12.023438 -10.429688 12.546875 -9.484375 C 13.066406 -8.535156 13.328125 -7.421875 13.328125 -6.140625 C 13.328125 -4.859375 13.0625 -3.738281 12.53125 -2.78125 C 12.007812 -1.832031 11.285156 -1.097656 10.359375 -0.578125 C 9.429688 -0.0664062 8.394531 0.1875 7.25 0.1875 Z M 7.25 -0.71875 C 8.132812 -0.71875 8.960938 -0.914062 9.734375 -1.3125 C 10.515625 -1.71875 11.140625 -2.328125 11.609375 -3.140625 C 12.078125 -3.953125 12.3125 -4.953125 12.3125 -6.140625 C 12.3125 -7.316406 12.078125 -8.3125 11.609375 -9.125 C 11.140625 -9.9375 10.519531 -10.539062 9.75 -10.9375 C 8.988281 -11.34375 8.164062 -11.546875 7.28125 -11.546875 C 6.382812 -11.546875 5.554688 -11.34375 4.796875 -10.9375 C 4.035156 -10.539062 3.421875 -9.9375 2.953125 -9.125 C 2.492188 -8.3125 2.265625 -7.316406 2.265625 -6.140625 C 2.265625 -4.953125 2.492188 -3.953125 2.953125 -3.140625 C 3.410156 -2.328125 4.019531 -1.71875 4.78125 -1.3125 C 5.539062 -0.914062 6.363281 -0.71875 7.25 -0.71875 Z M 7.25 -0.71875 "/></g></g></g><g fill="#d9d9d9" fill-opacity="1"><g transform="translate(170.866354, 228.515918)"><g><path d="M 2.875 -9.03125 C 3.21875 -10.03125 3.84375 -10.84375 4.75 -11.46875 C 5.664062 -12.101562 6.769531 -12.421875 8.0625 -12.421875 C 9.207031 -12.421875 10.226562 -12.164062 11.125 -11.65625 C 12.019531 -11.144531 12.71875 -10.414062 13.21875 -9.46875 C 13.726562 -8.519531 13.984375 -7.410156 13.984375 -6.140625 C 13.984375 -4.878906 13.726562 -3.769531 13.21875 -2.8125 C 12.71875 -1.851562 12.019531 -1.113281 11.125 -0.59375 C 10.226562 -0.0703125 9.207031 0.1875 8.0625 0.1875 C 6.78125 0.1875 5.679688 -0.128906 4.765625 -0.765625 C 3.859375 -1.410156 3.226562 -2.222656 2.875 -3.203125 L 2.875 5.78125 L 1.859375 5.78125 L 1.859375 -12.265625 L 2.875 -12.265625 Z M 12.953125 -6.140625 C 12.953125 -7.253906 12.738281 -8.21875 12.3125 -9.03125 C 11.894531 -9.84375 11.304688 -10.460938 10.546875 -10.890625 C 9.785156 -11.328125 8.90625 -11.546875 7.90625 -11.546875 C 6.957031 -11.546875 6.097656 -11.320312 5.328125 -10.875 C 4.566406 -10.4375 3.96875 -9.804688 3.53125 -8.984375 C 3.09375 -8.160156 2.875 -7.210938 2.875 -6.140625 C 2.875 -5.054688 3.09375 -4.101562 3.53125 -3.28125 C 3.96875 -2.46875 4.566406 -1.835938 5.328125 -1.390625 C 6.097656 -0.941406 6.957031 -0.71875 7.90625 -0.71875 C 8.90625 -0.71875 9.785156 -0.9375 10.546875 -1.375 C 11.304688 -1.8125 11.894531 -2.4375 12.3125 -3.25 C 12.738281 -4.0625 12.953125 -5.023438 12.953125 -6.140625 Z M 12.953125 -6.140625 "/></g></g></g><g fill="#d9d9d9" fill-opacity="1"><g transform="translate(185.206624, 228.515918)"><g><path d="M 16.359375 -12.515625 C 17.753906 -12.515625 18.894531 -12.066406 19.78125 -11.171875 C 20.675781 -10.273438 21.125 -8.945312 21.125 -7.1875 L 21.125 0 L 20.125 0 L 20.125 -7.109375 C 20.125 -8.578125 19.773438 -9.695312 19.078125 -10.46875 C 18.378906 -11.25 17.421875 -11.640625 16.203125 -11.640625 C 14.929688 -11.640625 13.910156 -11.203125 13.140625 -10.328125 C 12.378906 -9.453125 12 -8.1875 12 -6.53125 L 12 0 L 11 0 L 11 -7.109375 C 11 -8.578125 10.648438 -9.695312 9.953125 -10.46875 C 9.253906 -11.25 8.296875 -11.640625 7.078125 -11.640625 C 5.804688 -11.640625 4.785156 -11.203125 4.015625 -10.328125 C 3.253906 -9.453125 2.875 -8.1875 2.875 -6.53125 L 2.875 0 L 1.859375 0 L 1.859375 -12.265625 L 2.875 -12.265625 L 2.875 -9.609375 C 3.21875 -10.566406 3.773438 -11.289062 4.546875 -11.78125 C 5.328125 -12.269531 6.222656 -12.515625 7.234375 -12.515625 C 8.347656 -12.515625 9.304688 -12.222656 10.109375 -11.640625 C 10.910156 -11.066406 11.460938 -10.210938 11.765625 -9.078125 C 12.054688 -10.210938 12.613281 -11.066406 13.4375 -11.640625 C 14.269531 -12.222656 15.242188 -12.515625 16.359375 -12.515625 Z M 16.359375 -12.515625 "/></g></g></g><g fill="#d9d9d9" fill-opacity="1"><g transform="translate(207.225442, 228.515918)"><g><path d="M 12.90625 -6.953125 C 12.90625 -6.410156 12.890625 -6.003906 12.859375 -5.734375 L 2.265625 -5.734375 C 2.285156 -4.640625 2.519531 -3.710938 2.96875 -2.953125 C 3.425781 -2.203125 4.023438 -1.640625 4.765625 -1.265625 C 5.503906 -0.890625 6.3125 -0.703125 7.1875 -0.703125 C 8.394531 -0.703125 9.40625 -1 10.21875 -1.59375 C 11.03125 -2.1875 11.539062 -2.992188 11.75 -4.015625 L 12.8125 -4.015625 C 12.570312 -2.765625 11.953125 -1.75 10.953125 -0.96875 C 9.960938 -0.195312 8.707031 0.1875 7.1875 0.1875 C 6.039062 0.1875 5.015625 -0.0664062 4.109375 -0.578125 C 3.203125 -1.097656 2.492188 -1.832031 1.984375 -2.78125 C 1.472656 -3.738281 1.21875 -4.859375 1.21875 -6.140625 C 1.21875 -7.421875 1.46875 -8.535156 1.96875 -9.484375 C 2.476562 -10.429688 3.179688 -11.15625 4.078125 -11.65625 C 4.984375 -12.164062 6.019531 -12.421875 7.1875 -12.421875 C 8.363281 -12.421875 9.382812 -12.164062 10.25 -11.65625 C 11.113281 -11.15625 11.769531 -10.488281 12.21875 -9.65625 C 12.675781 -8.820312 12.90625 -7.921875 12.90625 -6.953125 Z M 11.890625 -6.578125 C 11.929688 -7.660156 11.738281 -8.578125 11.3125 -9.328125 C 10.882812 -10.078125 10.300781 -10.632812 9.5625 -11 C 8.820312 -11.375 8.019531 -11.5625 7.15625 -11.5625 C 6.300781 -11.5625 5.507812 -11.375 4.78125 -11 C 4.050781 -10.632812 3.453125 -10.078125 2.984375 -9.328125 C 2.523438 -8.578125 2.285156 -7.660156 2.265625 -6.578125 Z M 11.890625 -6.578125 "/></g></g></g><g fill="#d9d9d9" fill-opacity="1"><g transform="translate(220.481677, 228.515918)"><g><path d="M 7.390625 -12.515625 C 8.847656 -12.515625 10.035156 -12.066406 10.953125 -11.171875 C 11.878906 -10.273438 12.34375 -8.945312 12.34375 -7.1875 L 12.34375 0 L 11.34375 0 L 11.34375 -7.109375 C 11.34375 -8.578125 10.972656 -9.695312 10.234375 -10.46875 C 9.492188 -11.25 8.492188 -11.640625 7.234375 -11.640625 C 5.898438 -11.640625 4.835938 -11.21875 4.046875 -10.375 C 3.265625 -9.53125 2.875 -8.28125 2.875 -6.625 L 2.875 0 L 1.859375 0 L 1.859375 -12.265625 L 2.875 -12.265625 L 2.875 -9.671875 C 3.21875 -10.585938 3.789062 -11.289062 4.59375 -11.78125 C 5.40625 -12.269531 6.335938 -12.515625 7.390625 -12.515625 Z M 7.390625 -12.515625 "/></g></g></g><g fill="#d9d9d9" fill-opacity="1"><g transform="translate(233.692745, 228.515918)"><g><path d="M 3.359375 -11.390625 L 3.359375 -3.28125 C 3.359375 -2.375 3.523438 -1.75 3.859375 -1.40625 C 4.191406 -1.070312 4.78125 -0.90625 5.625 -0.90625 L 7 -0.90625 L 7 0 L 5.46875 0 C 4.394531 0 3.601562 -0.25 3.09375 -0.75 C 2.59375 -1.257812 2.34375 -2.101562 2.34375 -3.28125 L 2.34375 -11.390625 L 0.5 -11.390625 L 0.5 -12.265625 L 2.34375 -12.265625 L 2.34375 -15.390625 L 3.359375 -15.390625 L 3.359375 -12.265625 L 7 -12.265625 L 7 -11.390625 Z M 3.359375 -11.390625 "/></g></g></g></svg>